<svg version="1.1" xmlns="http://www.w3.org/2000/svg" xmlns:xlink="http://www.w3.org/1999/xlink" width="71.51125" height="131.77818" viewBox="0,0,71.51125,131.77818"><defs><linearGradient x1="254.89734" y1="222.99296" x2="253.91444" y2="220.11994" gradientUnits="userSpaceOnUse" id="color-1"><stop offset="0" stop-color="#1a1a1a"/><stop offset="1" stop-color="#000000" stop-opacity="0"/></linearGradient><linearGradient x1="253.27594" y1="226.70995" x2="253.26599" y2="225.24592" gradientUnits="userSpaceOnUse" id="color-2"><stop offset="0" stop-color="#1a1a1a"/><stop offset="1" stop-color="#000000" stop-opacity="0"/></linearGradient><linearGradient x1="254.23429" y1="226.47283" x2="253.44348" y2="218.50406" gradientUnits="userSpaceOnUse" id="color-3"><stop offset="0" stop-color="#1a1a1a"/><stop offset="1" stop-color="#000000" stop-opacity="0"/></linearGradient><linearGradient x1="255.03754" y1="227.84935" x2="254.14246" y2="226.1842" gradientUnits="userSpaceOnUse" id="color-4"><stop offset="0" stop-color="#1a1a1a"/><stop offset="1" stop-color="#000000" stop-opacity="0"/></linearGradient><linearGradient x1="256.21436" y1="225.7798" x2="249.80307" y2="220.28831" gradientUnits="userSpaceOnUse" id="color-5"><stop offset="0" stop-color="#1a1a1a"/><stop offset="1" stop-color="#000000" stop-opacity="0"/></linearGradient><linearGradient x1="254.15142" y1="223.96007" x2="254.18111" y2="214.77173" gradientUnits="userSpaceOnUse" id="color-6"><stop offset="0" stop-color="#1a1a1a"/><stop offset="1" stop-color="#000000" stop-opacity="0"/></linearGradient><linearGradient x1="255.58245" y1="221.33426" x2="255.04795" y2="213.80424" gradientUnits="userSpaceOnUse" id="color-7"><stop offset="0" stop-color="#1a1a1a"/><stop offset="1" stop-color="#000000" stop-opacity="0"/></linearGradient><linearGradient x1="256.82574" y1="144.95987" x2="255.70415" y2="142.09398" gradientUnits="userSpaceOnUse" id="color-8"><stop offset="0" stop-color="#1a1a1a"/><stop offset="1" stop-color="#000000" stop-opacity="0"/></linearGradient><linearGradient x1="257.16091" y1="147.36049" x2="256.6952" y2="144.62693" gradientUnits="userSpaceOnUse" id="color-9"><stop offset="0" stop-color="#1a1a1a"/><stop offset="1" stop-color="#000000" stop-opacity="0"/></linearGradient><linearGradient x1="226.2721" y1="223.33361" x2="227.18636" y2="220.43798" gradientUnits="userSpaceOnUse" id="color-10"><stop offset="0" stop-color="#1a1a1a"/><stop offset="1" stop-color="#000000" stop-opacity="0"/></linearGradient><linearGradient x1="227.98918" y1="227.01086" x2="227.9643" y2="225.54699" gradientUnits="userSpaceOnUse" id="color-11"><stop offset="0" stop-color="#1a1a1a"/><stop offset="1" stop-color="#000000" stop-opacity="0"/></linearGradient><linearGradient x1="227.02298" y1="226.79663" x2="227.62393" y2="218.81132" gradientUnits="userSpaceOnUse" id="color-12"><stop offset="0" stop-color="#1a1a1a"/><stop offset="1" stop-color="#000000" stop-opacity="0"/></linearGradient><linearGradient x1="226.2552" y1="228.19186" x2="227.1104" y2="226.50587" gradientUnits="userSpaceOnUse" id="color-13"><stop offset="0" stop-color="#1a1a1a"/><stop offset="1" stop-color="#000000" stop-opacity="0"/></linearGradient><linearGradient x1="225.02947" y1="226.1509" x2="231.30826" y2="220.5084" gradientUnits="userSpaceOnUse" id="color-14"><stop offset="0" stop-color="#1a1a1a"/><stop offset="1" stop-color="#000000" stop-opacity="0"/></linearGradient><linearGradient x1="227.04354" y1="224.28265" x2="226.7952" y2="215.09762" gradientUnits="userSpaceOnUse" id="color-15"><stop offset="0" stop-color="#1a1a1a"/><stop offset="1" stop-color="#000000" stop-opacity="0"/></linearGradient><linearGradient x1="225.54792" y1="221.69166" x2="225.90309" y2="214.15108" gradientUnits="userSpaceOnUse" id="color-16"><stop offset="0" stop-color="#1a1a1a"/><stop offset="1" stop-color="#000000" stop-opacity="0"/></linearGradient><linearGradient x1="222.49564" y1="145.36841" x2="223.54872" y2="142.47663" gradientUnits="userSpaceOnUse" id="color-17"><stop offset="0" stop-color="#1a1a1a"/><stop offset="1" stop-color="#000000" stop-opacity="0"/></linearGradient><linearGradient x1="222.21545" y1="147.77634" x2="222.61596" y2="145.03247" gradientUnits="userSpaceOnUse" id="color-18"><stop offset="0" stop-color="#1a1a1a"/><stop offset="1" stop-color="#000000" stop-opacity="0"/></linearGradient></defs><g transform="translate(-204.43205,-114.11679)"><g data-paper-data="{&quot;isPaintingLayer&quot;:true}" fill-rule="nonzero" stroke-miterlimit="10" stroke-dasharray="" stroke-dashoffset="0" style="mix-blend-mode: normal"><path d="M211.43192,190.00414c-0.00112,-0.18782 0.03097,-0.58818 0.10712,-0.80665l0.18155,-0.43793l4.48659,1.02435l-0.14988,-15.53747c-0.00298,-0.3033 -0.00898,-0.60842 -0.01476,-0.91414c-0.01154,-0.61142 -0.02762,-1.22788 -0.04922,-1.84754c-0.03163,-0.90757 -0.07312,-1.82546 -0.12216,-2.74534c-0.00263,-0.04927 -0.00685,-0.09844 -0.00954,-0.14773c-0.10057,-1.85789 -0.23014,-3.73324 -0.37014,-5.60211c-0.18979,-2.5284 -0.39706,-5.04016 -0.57145,-7.47883c-0.12924,-1.80724 -0.23919,-3.57437 -0.31174,-5.27213c-0.04982,-1.1659 -0.08419,-2.29782 -0.09094,-3.39163c-0.00332,-0.53729 -0.00108,-1.06672 0.00838,-1.58367c0.00946,-0.51689 0.03181,-1.04372 0.06294,-1.57646c0.01556,-0.26638 0.03228,-0.53298 0.0527,-0.80211c0.06116,-0.80613 0.14517,-1.62587 0.24329,-2.4424c0.00011,-0.00125 -0.00016,-0.00263 -0.00004,-0.00388c0.06555,-0.54517 0.13964,-1.08715 0.21794,-1.62884c0.07831,-0.54176 0.16116,-1.08179 0.24926,-1.61367c0.08788,-0.53065 0.18233,-1.05677 0.27699,-1.57128c0.00023,-0.00124 -0.00027,-0.00265 -0.00004,-0.00389c0.04747,-0.25784 0.09408,-0.50781 0.14269,-0.76038c0.14558,-0.75639 0.29553,-1.48934 0.44478,-2.1841c0.00023,-0.00125 -0.00027,-0.00263 -0.00004,-0.00388c0.09967,-0.46391 0.19774,-0.90964 0.29533,-1.33808c0.19503,-0.85688 0.38323,-1.63742 0.55217,-2.31373c0.25343,-1.01442 0.46757,-1.79616 0.59562,-2.25986c0.08543,-0.30899 0.1344,-0.47626 0.1344,-0.47626l0.44655,-1.70939c0.02963,-0.1127 0.08361,-0.22238 0.15951,-0.32872c0.02577,-0.03613 0.05342,-0.07065 0.08433,-0.10604c0.12032,-0.13834 0.27947,-0.27113 0.47382,-0.3986c0.00087,-0.00058 0.00304,0.00053 0.00389,-0.00004c0.09694,-0.06346 0.2027,-0.12972 0.31677,-0.19053c0.00099,-0.00054 0.0029,0.00048 0.00388,-0.00005c0.11428,-0.06082 0.23688,-0.12124 0.36749,-0.17944c0.00111,-0.00048 0.00277,0.00043 0.00388,-0.00005c1.05387,-0.46911 2.6207,-0.8554 4.49549,-1.16623c0.00125,-0.0002 0.00263,0.00015 0.00388,-0.00005c0.02911,-0.00483 0.06008,-0.00796 0.08933,-0.01273c0.41399,-0.06775 0.84481,-0.13355 1.28555,-0.19426c0.03016,-0.00416 0.05905,-0.00862 0.08933,-0.01273c0.50258,-0.06843 1.0197,-0.13 1.55019,-0.18965c0.00124,-0.00013 0.00262,0.00009 0.00388,-0.00004c0.26464,-0.02974 0.534,-0.05978 0.80436,-0.08739c0.00124,-0.00013 0.00259,0.00008 0.00388,-0.00005c0.27037,-0.0276 0.54084,-0.05423 0.81611,-0.07973c0.00124,-0.00011 0.0026,0.00008 0.00388,-0.00004c0.5519,-0.0511 1.11264,-0.09767 1.67914,-0.14058c0.00126,-0.00009 0.0026,0.00005 0.00388,-0.00004c1.70216,-0.12891 3.45717,-0.22286 5.17124,-0.2833c0.00129,-0.00004 0.00257,-0.00001 0.00388,-0.00004c1.14364,-0.04029 2.26678,-0.06589 3.34907,-0.07878c0.12046,-0.00143 0.24439,0.00052 0.36572,-0.00046c0.12132,-0.0019 0.24518,-0.00682 0.36563,-0.00824c1.08217,-0.01288 2.20565,-0.01403 3.34986,-0.00095c0.00131,0.00002 0.0026,-0.00006 0.00389,-0.00004c1.71514,0.01963 3.47176,0.07181 5.17651,0.16017c0.00128,0.00007 0.00263,-0.00011 0.00388,-0.00004c0.56736,0.02942 1.12903,0.06264 1.68199,0.10061c0.00128,0.00009 0.00263,-0.00014 0.00388,-0.00005c0.27579,0.01894 0.54682,0.03914 0.81777,0.0603c0.00128,0.00011 0.00263,-0.00015 0.00388,-0.00004c0.27092,0.02116 0.54093,0.04477 0.8062,0.0682c0.00126,0.00012 0.00263,-0.00016 0.00388,-0.00004c0.53173,0.04699 1.05016,0.09626 1.55426,0.15269c0.03038,0.00339 0.05937,0.00716 0.0896,0.0106c0.44204,0.0502 0.87431,0.10574 1.28982,0.16363c0.02935,0.00409 0.06041,0.00649 0.0896,0.01061c0.00124,0.00017 0.00268,-0.00021 0.00388,-0.00004c1.88155,0.26614 3.45717,0.61505 4.52198,1.05893c0.00113,0.00045 0.0028,-0.00048 0.00388,-0.00004c0.13195,0.0551 0.25595,0.11258 0.37166,0.17066c0.00101,0.0005 0.00287,-0.00055 0.00388,-0.00004c0.11549,0.05809 0.22279,0.1218 0.32122,0.18294c0.00088,0.00056 0.003,-0.0006 0.00388,-0.00004c0.19732,0.12279 0.3596,0.25176 0.48317,0.3872c0.03174,0.03466 0.0602,0.06851 0.08683,0.10401c0.07839,0.1045 0.13499,0.21287 0.16728,0.32483l0.4871,1.69827c0,0 0.05295,0.16606 0.14571,0.47294c0.13905,0.46038 0.37174,1.23688 0.64922,2.24504c0.185,0.67207 0.39171,1.44791 0.60708,2.29994c0.10776,0.42594 0.21641,0.86921 0.3271,1.33065c0.00026,0.00127 -0.00022,0.00263 0.00004,0.00388c0.16575,0.69103 0.33308,1.42012 0.49663,2.17291c0.05461,0.25134 0.10716,0.50014 0.16075,0.75677c0.00026,0.00126 -0.00022,0.00264 0.00004,0.00388c0.1069,0.51207 0.21383,1.0358 0.31431,1.56425c0.10074,0.52968 0.19642,1.06758 0.28757,1.60727c0.09118,0.53974 0.17817,1.07978 0.25666,1.6232c0.00013,0.00127 -0.00009,0.00262 0.00004,0.00388c0.11752,0.81392 0.22101,1.63147 0.30134,2.43592c0.02682,0.26858 0.04988,0.5347 0.07178,0.80062c0.0438,0.53186 0.07868,1.058 0.10045,1.57451c0.02177,0.51652 0.0366,1.04574 0.04608,1.58299c0.01927,1.09364 0.01186,2.22611 -0.01021,3.39283c-0.03213,1.69885 -0.10002,3.46823 -0.18619,5.27803c-0.1163,2.44214 -0.26375,4.95812 -0.39331,7.49031c-0.09548,1.87169 -0.1804,3.74945 -0.23672,5.60932c-0.0015,0.04933 -0.00458,0.09861 -0.00601,0.14791c-0.02714,0.92083 -0.04677,1.83946 -0.0568,2.74747c-0.00684,0.61994 -0.00825,1.23661 -0.00524,1.84818c0.00149,0.30576 0.00273,0.61093 0.00699,0.91424l0.2199,15.53662l4.46093,-1.13082l0.19192,0.43347c0.08133,0.21663 0.12292,0.61609 0.12628,0.80388c0.00188,0.10563 -0.00662,0.21859 -0.02715,0.33493c-0.00682,0.03876 -0.01662,0.07782 -0.02584,0.11702c-0.00896,0.03802 -0.01857,0.07896 -0.02973,0.11707c-0.0231,0.07852 -0.05061,0.15791 -0.08281,0.23443c-0.09609,0.22793 -0.2352,0.44283 -0.40528,0.6001c-0.00132,0.00126 -0.00254,0.00275 -0.00384,0.00393c-0.08595,0.07882 -0.179,0.14061 -0.28179,0.18622l-3.87988,1.55963l0.19399,13.68557c0.04764,0.09244 0.09494,0.18266 0.13944,0.27458c0.17862,0.3688 0.33204,0.73199 0.46435,1.09553c0.06598,0.18127 0.12575,0.36178 0.18154,0.54255c0.19521,0.63265 0.33271,1.26448 0.4273,1.90529c0.05407,0.36617 0.09516,0.73666 0.12607,1.11123c0.01544,0.18728 0.02691,0.37741 0.03787,0.56758c0.02194,0.38034 0.03558,0.76385 0.04492,1.15889c0.01863,0.79006 0.01922,1.6157 0.02962,2.48971c0.01541,1.2959 -0.03603,2.5306 -0.1504,3.70964c-0.04575,0.47159 -0.10064,0.93386 -0.16637,1.38707c-0.13146,0.9064 -0.30495,1.77506 -0.51365,2.60898c-0.05218,0.20847 -0.10694,0.41657 -0.16381,0.62057c-0.17062,0.61196 -0.36238,1.20113 -0.57419,1.77315c-0.0706,0.19068 -0.13997,0.3804 -0.21502,0.56672c-0.15014,0.37259 -0.3096,0.73601 -0.47725,1.09116c-0.08384,0.17759 -0.17016,0.35503 -0.25828,0.52831c-0.17625,0.34653 -0.36286,0.68496 -0.55597,1.01431c-0.09656,0.16467 -0.197,0.32557 -0.29769,0.48599c-0.50341,0.80211 -1.05543,1.55179 -1.65788,2.24908c-0.48136,0.55711 -0.99308,1.08272 -1.5337,1.57454c-0.00074,0.00063 -0.00317,-0.00059 -0.00388,0.00004c-0.13461,0.12243 -0.26996,0.24437 -0.4081,0.36281c-0.00074,0.00063 -0.00312,-0.00058 -0.00388,0.00005c-0.13815,0.11838 -0.27829,0.23684 -0.41991,0.35127c-0.00074,0.00062 -0.0031,-0.00059 -0.00388,0.00004c-0.42645,0.34441 -0.86587,0.67182 -1.32288,0.98063c-0.00087,0.00063 -0.00299,-0.00059 -0.00388,0.00004c-0.15175,0.1025 -0.30438,0.20642 -0.45937,0.30504c-0.00099,0.00064 -0.00297,-0.00058 -0.00388,0.00005c-0.46686,0.29696 -0.94585,0.57984 -1.44119,0.84198c-0.00097,0.00051 -0.00288,-0.00046 -0.00388,0.00004c-0.16445,0.08699 -0.3314,0.17174 -0.49887,0.25494c-0.00097,0.00051 -0.00285,-0.00047 -0.00388,0.00004c-0.1675,0.08317 -0.33627,0.16785 -0.50674,0.24725c-0.0011,0.00051 -0.00284,-0.00047 -0.00389,0.00004c-0.34204,0.15925 -0.68749,0.31173 -1.04118,0.45593c-0.0011,0.00051 -0.0028,-0.00047 -0.00388,0.00004c-0.1763,0.07184 -0.35534,0.14053 -0.53445,0.20868c-0.00111,0.00039 -0.00278,-0.00035 -0.00389,0.00004c-0.17912,0.06811 -0.36043,0.13654 -0.54231,0.20099c-0.1819,0.06442 -0.36563,0.12867 -0.55024,0.18939c-0.0011,0.00039 -0.00274,-0.00034 -0.00388,0.00004c-0.18462,0.06073 -0.37088,0.12075 -0.55816,0.17784c-0.00124,0.00038 -0.00271,-0.00034 -0.00388,0.00004c-0.18726,0.05707 -0.37619,0.11282 -0.56606,0.16625c-0.00123,0.00039 -0.00271,-0.00033 -0.00388,0.00005c-0.57205,0.16095 -1.15496,0.30861 -1.74955,0.43712l-0.00388,0.00004c-0.19738,0.04264 -0.39799,0.08084 -0.59774,0.11996l-0.00389,0.00004c-1.40585,0.27503 -2.86576,0.46514 -4.3781,0.56955c-0.00129,0.00008 -0.00263,-0.00005 -0.00389,0.00004c-0.21495,0.01476 -0.43241,0.0274 -0.64929,0.03886c-0.00128,0.00006 -0.00262,-0.00002 -0.00388,0.00004c-0.4351,0.02293 -0.87193,0.04109 -1.3144,0.05065c-0.00128,0.00001 -0.00263,0.00003 -0.00389,0.00005c-0.22192,0.00476 -0.4454,0.00654 -0.6691,0.00795c-0.07916,0.00094 -0.15831,-0.00086 -0.23735,-0.00104c-0.07902,0.00218 -0.1581,0.00573 -0.23724,0.00667c-0.22369,0.0039 -0.44713,0.00743 -0.6691,0.00796c-0.00127,0 -0.0026,0.00003 -0.00388,0.00004c-0.44263,0.00104 -0.87977,-0.00679 -1.31523,-0.01936c-0.00127,-0.00005 -0.0026,0.00008 -0.00388,0.00004c-0.2171,-0.00625 -0.43477,-0.01375 -0.65004,-0.02339c-0.00128,-0.00007 -0.00261,0.00009 -0.00389,0.00004c-1.5144,-0.06839 -2.97828,-0.2237 -4.3904,-0.46522l-0.00388,0.00004c-0.20063,-0.03434 -0.40209,-0.06777 -0.60043,-0.1057l-0.00388,0.00004c-0.59745,-0.11433 -1.18369,-0.24807 -1.75945,-0.39536c-0.00125,-0.00036 -0.00264,0.0004 -0.00388,0.00004c-0.1911,-0.0489 -0.3813,-0.10013 -0.56987,-0.15273c-0.00125,-0.00036 -0.00264,0.0004 -0.00388,0.00004c-0.18858,-0.05262 -0.37622,-0.10817 -0.56224,-0.16449c-0.00112,-0.00036 -0.00276,0.0004 -0.00388,0.00004c-0.18599,-0.05634 -0.3712,-0.1162 -0.55458,-0.17627c-0.18337,-0.0601 -0.36625,-0.1242 -0.54695,-0.18803c-0.00113,-0.00036 -0.00276,0.0004 -0.00388,0.00004c-0.18067,-0.06387 -0.36128,-0.12828 -0.53925,-0.1959c-0.00114,-0.00049 -0.00276,0.00052 -0.00388,0.00004c-0.35702,-0.13574 -0.706,-0.27995 -1.05172,-0.43102c-0.00101,-0.00048 -0.00276,0.00052 -0.00389,0.00004c-0.17231,-0.07533 -0.34306,-0.15596 -0.51249,-0.23512c-0.001,-0.00048 -0.00289,0.00053 -0.00388,0.00004c-0.16941,-0.07919 -0.33832,-0.15995 -0.50479,-0.24299c-0.00101,-0.00048 -0.00289,0.00053 -0.00388,0.00004c-0.50146,-0.25028 -0.98706,-0.52166 -1.46082,-0.80743c-0.00087,-0.00061 -0.00289,0.00066 -0.00388,0.00004c-0.15729,-0.09491 -0.31236,-0.19517 -0.46649,-0.29403c-0.00087,-0.00061 -0.003,0.00066 -0.00388,0.00005c-0.46421,-0.29786 -0.91129,-0.61469 -1.34585,-0.94887c-0.00075,-0.00062 -0.00314,0.00066 -0.00388,0.00004c-0.14433,-0.11102 -0.28722,-0.22611 -0.42815,-0.34117c-0.00076,-0.00062 -0.00315,0.00066 -0.00389,0.00004c-0.14092,-0.11511 -0.27913,-0.2338 -0.4166,-0.35299c-0.00076,-0.00062 -0.00315,0.00066 -0.00389,0.00004c-0.55214,-0.47878 -1.07621,-0.99209 -1.57073,-1.53761c-0.61892,-0.68276 -1.18863,-1.41913 -1.71095,-2.209c-0.10448,-0.15798 -0.20872,-0.31644 -0.30917,-0.47876c-0.20089,-0.32466 -0.39551,-0.65856 -0.57996,-1.00079c-0.09223,-0.17112 -0.18274,-0.34647 -0.27078,-0.52202c-0.17607,-0.35109 -0.34413,-0.71059 -0.50307,-1.07951c-0.07947,-0.18445 -0.15335,-0.37248 -0.22845,-0.56143c-0.22534,-0.56688 -0.43109,-1.1513 -0.61621,-1.75899c-0.06171,-0.20258 -0.1214,-0.40934 -0.17853,-0.61651c-0.2285,-0.82868 -0.42261,-1.69294 -0.5756,-2.59602c-0.07651,-0.45151 -0.14236,-0.91233 -0.19933,-1.38272c-0.14255,-1.17593 -0.22338,-2.4091 -0.23879,-3.705c-0.0104,-0.87395 -0.02944,-1.69937 -0.02962,-2.48971c-0.00006,-0.39515 0.00442,-0.77887 0.01732,-1.15963c0.00645,-0.19039 0.01338,-0.38074 0.02437,-0.56832c0.02197,-0.37521 0.05423,-0.74655 0.09958,-1.11392c0.07931,-0.64284 0.20174,-1.27781 0.38186,-1.91493c0.05147,-0.18204 0.10692,-0.36392 0.16857,-0.54671c0.12362,-0.3666 0.26835,-0.73334 0.43816,-1.10626c0.04231,-0.09296 0.08742,-0.1843 0.13288,-0.27783l-0.13174,-13.68632l-3.9159,-1.46687c-0.10385,-0.04314 -0.19835,-0.10271 -0.28615,-0.17945c-0.00132,-0.00124 -0.0026,-0.00262 -0.00393,-0.00384c-0.17378,-0.1532 -0.31798,-0.3647 -0.41944,-0.59029c-0.03401,-0.07574 -0.0634,-0.15445 -0.08836,-0.2324c-0.01206,-0.03781 -0.02265,-0.07851 -0.03251,-0.11632c-0.01014,-0.03899 -0.02089,-0.0778 -0.02863,-0.11638c-0.02329,-0.11582 -0.03448,-0.22855 -0.03511,-0.33419z" data-paper-data="{&quot;index&quot;:null}" fill-opacity="0.99608" fill="#000000" stroke="#191919" stroke-width="14" stroke-linecap="butt" stroke-linejoin="miter"/><path d="M211.43187,190.00409c-0.00112,-0.18782 0.03112,-0.58817 0.10712,-0.80665l0.18155,-0.43793l4.47489,1.02447l-0.14988,-15.53747c-0.0949,-9.70552 -1.67875,-20.71229 -1.52766,-28.98236c0.15105,-8.2703 3.26024,-18.97823 3.26024,-18.97823l0.45044,-1.70943c0.63079,-2.40432 12.08267,-3.34577 20.7236,-3.44859c0.13854,-0.00165 0.28052,-0.00002 0.42018,-0.00111c0.13963,-0.00223 0.28155,-0.00725 0.42009,-0.0089c8.64104,-0.10284 20.11152,0.56587 20.7998,2.95446l0.49098,1.69823c0,0 3.36309,10.63128 3.71094,18.89528c0.34781,8.26438 -0.97363,19.30585 -0.83756,29.01051l0.2199,15.53663l4.44924,-1.13067l0.19192,0.43348c0.08119,0.21662 0.12293,0.61607 0.12628,0.80387c0.00188,0.10562 -0.00666,0.21858 -0.02715,0.33492c-0.00681,0.03876 -0.01664,0.07782 -0.02584,0.11702c-0.00893,0.03803 -0.01859,0.07898 -0.02973,0.11708c-0.02305,0.07852 -0.05067,0.15792 -0.0828,0.23443c-0.09591,0.22792 -0.23165,0.44277 -0.40139,0.60006c-0.00132,0.00126 -0.00256,0.00275 -0.00384,0.00393c-0.0858,0.0788 -0.17921,0.14061 -0.2818,0.18621l-3.87217,1.55955l0.19399,13.68557c1.52201,2.95751 1.40178,5.64959 1.44338,9.14539c0.1974,16.58771 -10.50075,23.48552 -24.79188,23.57713c-0.09712,0.00115 -0.19492,-0.00005 -0.29182,-0.0004c-0.09685,0.00264 -0.1946,0.00618 -0.29172,0.00732c-14.28878,0.24825 -25.14853,-6.39267 -25.34592,-22.98049c-0.0416,-3.49581 -0.22594,-6.18425 1.22534,-9.17715l-0.13174,-13.68632l-3.90819,-1.46695c-0.10366,-0.04314 -0.19853,-0.10271 -0.28616,-0.17945c-0.0013,-0.00124 -0.00259,-0.00261 -0.00392,-0.00384c-0.17345,-0.15318 -0.31426,-0.36476 -0.41554,-0.59033c-0.03395,-0.07573 -0.06344,-0.15445 -0.08836,-0.2324c-0.01204,-0.03782 -0.02268,-0.07851 -0.03251,-0.11632c-0.01013,-0.03898 -0.0209,-0.07779 -0.02863,-0.11637c-0.02325,-0.11581 -0.03448,-0.22854 -0.03511,-0.33418z" data-paper-data="{&quot;index&quot;:null}" fill-opacity="0.99608" fill="#ffffff" stroke="none" stroke-width="1" stroke-linecap="butt" stroke-linejoin="miter"/><path d="M256.12826,163.3041c-0.04942,-4.15333 0.12733,-8.13244 0.48975,-11.81011c6.10221,3.12213 3.91272,12.15289 4.22968,25.54255c0.14639,6.18433 0.36659,11.14403 0.47569,15.12522c-2.97461,-5.83618 -5.04888,-16.56484 -5.19517,-28.85779z" data-paper-data="{&quot;index&quot;:null}" fill-opacity="0.99608" fill="#262626" stroke="none" stroke-width="1" stroke-linecap="butt" stroke-linejoin="miter" opacity="0.9"/><path d="M256.12826,163.30409c-0.00475,-0.39915 -0.00578,-0.79463 -0.00638,-1.19048c2.01428,0.07791 3.77609,0.75538 4.85715,1.7592c-0.00249,0.58164 -0.01039,1.1823 -0.0214,1.79771c-1.03251,-1.05417 -2.78868,-1.7837 -4.8237,-1.89967c-0.00249,-0.15575 -0.00371,-0.31055 -0.00555,-0.46682z" data-paper-data="{&quot;index&quot;:null}" fill-opacity="0.99608" fill="#000000" stroke="none" stroke-width="1" stroke-linecap="butt" stroke-linejoin="miter" opacity="0.5"/><path d="M253.54711,236.6274l0.06636,-0.63496c0.28088,-2.68578 3.17818,-4.7301 6.73014,-4.97069l0.88641,-0.05724l-0.59521,0.66071c-1.80391,1.9997 -4.00473,3.57147 -6.51119,4.73465l-0.57575,0.26707z" data-paper-data="{&quot;index&quot;:null}" fill="#212121" stroke="#191919" stroke-width="5" stroke-linecap="butt" stroke-linejoin="miter"/><path d="M259.58374,203.62645c0,0 0.35727,19.35101 -6.35886,29.04632c-1.89086,2.72946 -7.1648,3.88048 -7.1648,3.88048c0,0 3.54625,-9.00891 4.72667,-12.3645c1.13034,-3.21356 3.8252,-13.16567 3.8252,-13.16567" data-paper-data="{&quot;index&quot;:null}" fill="none" stroke="#292929" stroke-width="6" stroke-linecap="round" stroke-linejoin="round" opacity="0.5"/><path d="M252.16821,221.82169l0.2852,-0.55587c0.14546,0.12141 0.30497,0.21992 0.48201,0.28997c1.46571,0.57991 3.62356,-1.37979 4.41441,-3.39855c0.02531,-0.06464 0.10196,-0.22693 0.20113,-0.42649l-0.4622,1.70186c-1.02723,2.16686 -2.8327,3.45381 -4.19843,2.91352c-0.27987,-0.11074 -0.52214,-0.28951 -0.72214,-0.52444z" data-paper-data="{&quot;index&quot;:null}" fill="url(#color-1)" stroke="none" stroke-width="1" stroke-linecap="butt" stroke-linejoin="miter"/><path d="M251.6257,222.89638l0.2852,-0.55588c0.14546,0.12141 0.30497,0.21991 0.48201,0.28996c1.46571,0.57991 3.62356,-1.37979 4.41441,-3.39855c0.02533,-0.06463 0.10197,-0.22692 0.20114,-0.42648l-0.4622,1.70185c-1.02722,2.16687 -2.83269,3.45382 -4.19842,2.91353c-0.27986,-0.11074 -0.52214,-0.28951 -0.72214,-0.52444z" data-paper-data="{&quot;index&quot;:null}" fill="url(#color-2)" stroke="none" stroke-width="1" stroke-linecap="butt" stroke-linejoin="miter"/><path d="M251.45812,223.66905l0.2852,-0.55587c0.14546,0.12141 0.30497,0.21992 0.48201,0.28997c1.46571,0.57991 3.62356,-1.37979 4.41441,-3.39855c0.02531,-0.06464 0.10196,-0.22693 0.20113,-0.42649l-0.4622,1.70186c-1.02723,2.16687 -2.8327,3.45382 -4.19843,2.91353c-0.27987,-0.11074 -0.52214,-0.28951 -0.72214,-0.52444z" data-paper-data="{&quot;index&quot;:null}" fill="url(#color-3)" stroke="none" stroke-width="1" stroke-linecap="butt" stroke-linejoin="miter"/><path d="M250.9516,225.78043l0.22036,-0.77297c0.21463,0.11699 0.44217,0.20072 0.68379,0.24476c2.00063,0.36457 4.23681,-2.66025 4.72894,-5.41378c0.07571,-0.42358 1.0248,-3.60835 1.04838,-4.01625l0.5135,-0.00611l-1.45085,5.17656c-0.64527,3.28025 -2.72787,5.62875 -4.69956,5.2695c-0.382,-0.0696 -0.73231,-0.23481 -1.04456,-0.48168z" data-paper-data="{&quot;index&quot;:null}" fill="url(#color-4)" stroke="none" stroke-width="1" stroke-linecap="butt" stroke-linejoin="miter"/><path d="M250.9516,225.78043l0.22036,-0.77297c0.21463,0.11699 0.44217,0.20072 0.68379,0.24476c2.00063,0.36457 4.23681,-2.66025 4.72894,-5.41378c0.07571,-0.42358 1.0248,-3.60835 1.04838,-4.01625l0.5135,-0.00611l-1.45085,5.17656c-0.64527,3.28025 -2.72787,5.62875 -4.69956,5.2695c-0.382,-0.0696 -0.73231,-0.23481 -1.04456,-0.48168z" data-paper-data="{&quot;index&quot;:null}" fill="url(#color-5)" stroke="none" stroke-width="1" stroke-linecap="butt" stroke-linejoin="miter"/><path d="M252.72429,220.2152l0.25477,-0.49656c0.12995,0.10845 0.27245,0.19646 0.43058,0.25902c1.30934,0.51805 3.23698,-1.23258 3.9435,-3.03601c0.02262,-0.05776 0.09108,-0.20272 0.17968,-0.38099l-0.4129,1.52026c-0.91763,1.93574 -2.53053,3.08543 -3.75057,2.60267c-0.25002,-0.09892 -0.46643,-0.25863 -0.6451,-0.46849z" data-paper-data="{&quot;index&quot;:null}" fill="url(#color-6)" stroke="none" stroke-width="1" stroke-linecap="butt" stroke-linejoin="miter"/><path d="M253.14826,218.492l0.25476,-0.49657c0.12995,0.10845 0.27246,0.19646 0.43059,0.25902c1.30934,0.51805 3.23698,-1.23258 3.9435,-3.03601c0.02262,-0.05774 0.09108,-0.20271 0.17968,-0.38098l-0.4129,1.52026c-0.91762,1.93574 -2.53053,3.08542 -3.75057,2.60266c-0.25002,-0.09891 -0.46643,-0.25862 -0.6451,-0.46848z" data-paper-data="{&quot;index&quot;:null}" fill="url(#color-7)" stroke="none" stroke-width="1" stroke-linecap="butt" stroke-linejoin="miter"/><path d="M254.69574,142.52037l2.9627,-0.44876c0.60716,0.84874 0.7695,1.70276 0.0112,2.56776l-2.22422,0.3369c-0.9109,-0.52589 -0.98934,-1.42051 -0.74974,-2.45587z" data-paper-data="{&quot;index&quot;:null}" fill="url(#color-8)" stroke="none" stroke-width="1" stroke-linecap="butt" stroke-linejoin="miter"/><path d="M255.13277,145.03889l2.8199,-0.42712c0.63996,0.82007 0.37139,1.63244 0.01067,2.444l-2.11697,0.32065c-0.76243,-0.4486 -0.85217,-1.32115 -0.7136,-2.33753z" data-paper-data="{&quot;index&quot;:null}" fill="url(#color-9)" stroke="none" stroke-width="1" stroke-linecap="butt" stroke-linejoin="miter"/><path d="M255.81831,163.30779c-0.04956,-4.16454 0.12573,-8.15547 0.48933,-11.84521l0.04516,-0.45574l0.40712,0.20915c1.58638,0.81171 2.6528,2.03045 3.3342,3.57863c0.68129,1.54831 0.9885,3.42105 1.11716,5.60093c0.25729,4.35979 -0.20911,9.95703 -0.05107,16.633c0.14632,6.18096 0.36646,11.13968 0.47569,15.12522l-0.58965,0.14708c-3.01869,-5.92031 -5.08134,-16.66529 -5.22802,-28.99186zM256.44072,163.30037c0.13506,11.34922 1.93236,21.36044 4.52356,27.34808c-0.11687,-3.72773 -0.29651,-8.11557 -0.42646,-13.60437c-0.15892,-6.71344 0.30802,-12.32651 0.05523,-16.60938c-0.12639,-2.14169 -0.43363,-3.94995 -1.06797,-5.39148c-0.5697,-1.29466 -1.4159,-2.28458 -2.63879,-3.01892c-0.32941,3.52823 -0.49262,7.31856 -0.44552,11.27657z" data-paper-data="{&quot;index&quot;:null}" fill="#191919" stroke="none" stroke-width="1" stroke-linecap="butt" stroke-linejoin="miter" opacity="0.9"/><path d="M225.06611,146.26323l1.43704,-9.6971c0.50181,-3.38624 5.99904,-6.16546 12.97552,-6.50395c6.98307,0.17241 12.54488,2.82 13.12662,6.19333l1.66739,9.66016c0.0197,1.65515 -1.29695,3.00352 -2.9521,3.0232l-23.23151,0.27646c-1.65517,0.01969 -3.00351,-1.29695 -3.0232,-2.9521z" data-paper-data="{&quot;index&quot;:null}" fill-opacity="0.99608" fill="#262626" stroke="#191919" stroke-width="5" stroke-linecap="butt" stroke-linejoin="miter" opacity="0.9"/><path d="M221.44539,200.02445c-0.0044,-0.36961 0.03262,-0.73411 0.10759,-1.09456c-0.00125,-0.00128 -0.00265,-0.00255 -0.00392,-0.00384l1.43808,-7.96578c0.79592,-2.21667 1.72927,-4.00468 3.93614,-4.03093l26.46066,-0.31489c2.20688,-0.02626 3.18246,1.73903 4.03094,3.93613l1.62724,7.92929c-0.00126,0.00132 -0.0026,0.00263 -0.00384,0.00393c0.08353,0.35856 0.1292,0.72208 0.13361,1.0917c0.06724,5.65103 -7.01911,10.31744 -18.74137,10.47114c-11.72286,0.1253 -18.918,-4.37103 -18.98524,-10.0222z" data-paper-data="{&quot;index&quot;:null}" fill-opacity="0.99608" fill="#262626" stroke="#191919" stroke-width="5" stroke-linecap="butt" stroke-linejoin="miter" opacity="0.9"/><path d="M223.62638,163.69076c0.1463,12.29296 -1.67209,23.06794 -4.50698,28.97324c0.01432,-3.98266 0.11644,-8.9462 0.11562,-15.13225c-0.00176,-13.39341 -2.40552,-22.3695 3.62064,-25.63597c0.44984,3.66799 0.72124,7.64175 0.77067,11.79509z" data-paper-data="{&quot;index&quot;:null}" fill-opacity="0.99608" fill="#262626" stroke="none" stroke-width="1" stroke-linecap="butt" stroke-linejoin="miter" opacity="0.9"/><path d="M223.62623,163.69084c0.00186,0.15626 0.00432,0.31106 0.00555,0.46682c-2.03168,0.16437 -3.77,0.93547 -4.77713,2.01391c-0.02564,-0.61499 -0.04786,-1.21528 -0.06418,-1.7967c1.05688,-1.02928 2.80206,-1.74847 4.81391,-1.87429c0.00882,0.39572 0.0172,0.79114 0.02195,1.19029z" data-paper-data="{&quot;index&quot;:null}" fill-opacity="0.99608" fill="#000000" stroke="none" stroke-width="1" stroke-linecap="butt" stroke-linejoin="miter" opacity="0.5"/><path d="M227.95164,236.93197l-0.58273,-0.25374c-2.53345,-1.10321 -4.77105,-2.62216 -6.62204,-4.57838l-0.61076,-0.64636l0.88752,0.03613c3.55667,0.156 6.50181,2.13081 6.8465,4.80914l0.08147,0.63322z" data-paper-data="{&quot;index&quot;:null}" fill="#212121" stroke="#191919" stroke-width="5" stroke-linecap="butt" stroke-linejoin="miter"/><path d="M226.27777,211.36025c0,0 2.93091,9.88516 4.13741,13.07091c1.25994,3.32655 5.01957,12.24853 5.01957,12.24853c0,0 -5.29986,-1.02521 -7.25511,-3.70889c-6.94493,-9.53274 -7.0495,-28.88677 -7.0495,-28.88677" data-paper-data="{&quot;index&quot;:null}" fill="none" stroke="#292929" stroke-width="6" stroke-linecap="round" stroke-linejoin="round" opacity="0.5"/><path d="M228.97783,222.09767c-0.19435,0.23962 -0.43229,0.42412 -0.70944,0.54147c-1.35252,0.57262 -3.1881,-0.67098 -4.26659,-2.8128l-0.50257,-1.69038c0.10389,0.19714 0.18436,0.35756 0.21123,0.42158c0.83867,1.99938 3.04253,3.90716 4.49401,3.29254c0.17532,-0.07425 0.33244,-0.17651 0.47498,-0.30135l0.29834,0.54891z" data-paper-data="{&quot;index&quot;:null}" fill="url(#color-10)" stroke="none" stroke-width="1" stroke-linecap="butt" stroke-linejoin="miter"/><path d="M229.54573,223.15915c-0.19435,0.23962 -0.4323,0.42412 -0.70944,0.54147c-1.35252,0.57261 -3.18811,-0.67098 -4.26659,-2.8128l-0.50257,-1.69038c0.10388,0.19713 0.18436,0.35755 0.21123,0.42157c0.83867,1.99938 3.04254,3.90716 4.49402,3.29254c0.17531,-0.07424 0.33244,-0.1765 0.47497,-0.30135l0.29834,0.54893z" data-paper-data="{&quot;index&quot;:null}" fill="url(#color-11)" stroke="none" stroke-width="1" stroke-linecap="butt" stroke-linejoin="miter"/><path d="M229.73043,223.92765c-0.19435,0.23962 -0.4323,0.42412 -0.70944,0.54147c-1.35252,0.57261 -3.1881,-0.67098 -4.26658,-2.8128l-0.50258,-1.69038c0.10387,0.19713 0.18435,0.35755 0.21122,0.42157c0.83867,1.99938 3.04254,3.90716 4.49402,3.29254c0.17531,-0.07424 0.33244,-0.1765 0.47497,-0.30135l0.29834,0.54892z" data-paper-data="{&quot;index&quot;:null}" fill="url(#color-12)" stroke="none" stroke-width="1" stroke-linecap="butt" stroke-linejoin="miter"/><path d="M230.28823,226.02636c-0.30628,0.25424 -0.65256,0.42773 -1.03281,0.50641c-1.96258,0.40608 -4.10046,-1.89221 -4.8236,-5.15617l-1.57365,-5.14056l0.5135,-0.00612c0.03329,0.40723 1.05788,3.5685 1.14365,3.99017c0.55753,2.74102 2.86507,5.71178 4.85644,5.2997c0.24051,-0.04975 0.46598,-0.1389 0.67777,-0.26096l0.23869,0.76751z" data-paper-data="{&quot;index&quot;:null}" fill="url(#color-13)" stroke="none" stroke-width="1" stroke-linecap="butt" stroke-linejoin="miter"/><path d="M230.28823,226.02636c-0.30628,0.25424 -0.65256,0.42773 -1.03281,0.50641c-1.96258,0.40608 -4.10046,-1.89221 -4.8236,-5.15617l-1.57365,-5.14056l0.5135,-0.00612c0.03329,0.40723 1.05788,3.5685 1.14365,3.99017c0.55753,2.74102 2.86507,5.71178 4.85644,5.2997c0.24051,-0.04975 0.46598,-0.1389 0.67777,-0.26096l0.23869,0.76751z" data-paper-data="{&quot;index&quot;:null}" fill="url(#color-14)" stroke="none" stroke-width="1" stroke-linecap="butt" stroke-linejoin="miter"/><path d="M228.38365,220.50474c-0.17363,0.21405 -0.38617,0.37886 -0.63377,0.4837c-1.20819,0.51165 -2.84799,-0.59934 -3.81143,-2.51268l-0.44894,-1.50998c0.09282,0.17609 0.16471,0.3194 0.1887,0.37658c0.74921,1.7861 2.71798,3.49036 4.01462,2.94131c0.15659,-0.06631 0.29697,-0.15767 0.42431,-0.2692l0.2665,0.49038z" data-paper-data="{&quot;index&quot;:null}" fill="url(#color-15)" stroke="none" stroke-width="1" stroke-linecap="butt" stroke-linejoin="miter"/><path d="M227.9188,218.79215c-0.17363,0.21405 -0.38617,0.37886 -0.63377,0.4837c-1.20819,0.51165 -2.84799,-0.59934 -3.81143,-2.51268l-0.44895,-1.50998c0.09282,0.17609 0.16471,0.3194 0.1887,0.37658c0.74921,1.7861 2.71798,3.49036 4.01462,2.94131c0.15659,-0.06631 0.29696,-0.15767 0.4243,-0.2692l0.2665,0.49038z" data-paper-data="{&quot;index&quot;:null}" fill="url(#color-16)" stroke="none" stroke-width="1" stroke-linecap="butt" stroke-linejoin="miter"/><path d="M224.56269,142.87898c0.26416,1.02936 0.20703,1.92559 -0.6911,2.47302l-2.23162,-0.28387c-0.77866,-0.84671 -0.63669,-1.70434 -0.0499,-2.56728l2.97254,0.37813z" data-paper-data="{&quot;index&quot;:null}" fill="url(#color-17)" stroke="none" stroke-width="1" stroke-linecap="butt" stroke-linejoin="miter"/><path d="M224.1869,145.40714c0.16272,1.01278 0.09376,1.88722 -0.65777,2.35384l-2.12399,-0.27018c-0.37992,-0.80274 -0.66776,-1.60848 -0.0475,-2.44356l2.82925,0.3599z" data-paper-data="{&quot;index&quot;:null}" fill="url(#color-18)" stroke="none" stroke-width="1" stroke-linecap="butt" stroke-linejoin="miter"/><path d="M223.93624,163.68715c0.14668,12.32532 -1.66017,23.11773 -4.53649,29.10931l-0.59298,-0.13301c0.01434,-3.98702 0.11645,-8.94957 0.11562,-15.13225c-0.00088,-6.67785 -0.60034,-12.2624 -0.44686,-16.62707c0.07674,-2.18233 0.33928,-4.06184 0.98356,-5.62593c0.64438,-1.56397 1.68149,-2.80776 3.2481,-3.65697l0.40203,-0.21878l0.056,0.45455c0.45131,3.68004 0.72152,7.66566 0.77108,11.8302zM223.31381,163.6951c-0.04711,-3.95803 -0.30045,-7.7434 -0.71374,-11.26278c-1.20507,0.76322 -2.02746,1.77304 -2.5662,3.08087c-0.59984,1.45623 -0.86399,3.27126 -0.93937,5.41536c-0.15079,4.28769 0.44959,9.88807 0.45047,16.60338c0.00072,5.49033 -0.07448,9.8812 -0.10261,13.61066c2.44798,-6.04762 4.00656,-16.09876 3.8715,-27.448z" data-paper-data="{&quot;index&quot;:null}" fill="#191919" stroke="none" stroke-width="1" stroke-linecap="butt" stroke-linejoin="miter" opacity="0.9"/></g></g></svg>